<svg xmlns="http://www.w3.org/2000/svg" viewBox="0 0 512 512">
  <defs>
    <!-- Background Glow -->
    <radialGradient id="bgGlow" cx="50%" cy="50%" r="50%">
      <stop offset="0%" stop-color="#2a1205" />
      <stop offset="100%" stop-color="#0a0a0a" />
    </radialGradient>
    
    <!-- Intense Fire Gradient -->
    <linearGradient id="fireGrad" x1="50%" y1="100%" x2="50%" y2="0%">
      <stop offset="0%" stop-color="#ff2a00" />
      <stop offset="40%" stop-color="#ff7300" />
      <stop offset="80%" stop-color="#ffb300" />
      <stop offset="100%" stop-color="#ffe600" />
    </linearGradient>

    <!-- Chrome/Steel/Anvil Gradient -->
    <linearGradient id="anvilGrad" x1="0%" y1="0%" x2="0%" y2="100%">
      <stop offset="0%" stop-color="#ebedf0" />
      <stop offset="30%" stop-color="#a0aab5" />
      <stop offset="70%" stop-color="#55606b" />
      <stop offset="100%" stop-color="#222" />
    </linearGradient>

    <linearGradient id="hammerGrad" x1="0%" y1="0%" x2="100%" y2="100%">
      <stop offset="0%" stop-color="#ffffff" />
      <stop offset="100%" stop-color="#a0aab5" />
    </linearGradient>

    <filter id="neonGlow" x="-50%" y="-50%" width="200%" height="200%">
      <feGaussianBlur in="SourceGraphic" stdDeviation="12" result="blur1" />
      <feGaussianBlur in="SourceGraphic" stdDeviation="24" result="blur2" />
      <feMerge>
        <feMergeNode in="blur2" />
        <feMergeNode in="blur1" />
        <feMergeNode in="SourceGraphic" />
      </feMerge>
    </filter>
  </defs>

  <!-- Background -->
  <rect width="512" height="512" rx="120" fill="url(#bgGlow)" />
  <rect width="512" height="512" rx="120" fill="none" stroke="#222" stroke-width="4" />

  <!-- Center Anvil + Flames -->
  <g transform="translate(256, 300)">
    
    <!-- Big Flames behind the forge -->
    <path d="M -80 -10 C -120 -80 -60 -180 -10 -110 C 20 -190 80 -190 50 -100 C 130 -160 160 -80 80 -10 Z" fill="url(#fireGrad)" filter="url(#neonGlow)" />
    
    <!-- The Anvil -->
    <path d="M -160 0 L -80 -20 L 140 -20 C 160 -20 180 -10 160 0 L -160 0 Z" fill="url(#anvilGrad)" />
    <path d="M -60 0 L 120 0 L 100 80 L -40 80 Z" fill="url(#anvilGrad)" />
    <path d="M -100 120 L -80 80 L 140 80 L 160 120 Z" fill="url(#anvilGrad)" />
    <path d="M -120 150 L -100 120 L 160 120 L 180 150 Z" fill="url(#anvilGrad)" />
    
    <!-- AI Core being forged on top -->
    <circle cx="20" cy="-25" r="18" fill="#ffffff" filter="url(#neonGlow)" />
    
    <!-- The Blacksmith Hammer striking -->
    <g transform="translate(70, -110) rotate(35)">
      <!-- Handle -->
      <path d="M -15 0 L 15 0 L 10 120 L -10 120 Z" fill="#333" />
      <!-- Mallet Head -->
      <rect x="-40" y="-30" width="80" height="40" rx="8" fill="url(#hammerGrad)" />
    </g>

    <!-- Sparks flying -->
    <circle cx="-60" cy="-60" r="6" fill="#ffe600" filter="url(#neonGlow)" />
    <circle cx="-20" cy="-120" r="4" fill="#ff7300" filter="url(#neonGlow)" />
    <circle cx="90" cy="-80" r="8" fill="#ffffff" filter="url(#neonGlow)" />
    
  </g>
</svg>
